<?xml version="1.0" standalone="no"?>
<!DOCTYPE svg PUBLIC "-//W3C//DTD SVG 20010904//EN"
 "http://www.w3.org/TR/2001/REC-SVG-20010904/DTD/svg10.dtd">
<svg version="1.0" xmlns="http://www.w3.org/2000/svg"
 width="288.000000pt" height="288.000000pt" viewBox="0 0 288.000000 288.000000"
 preserveAspectRatio="xMidYMid meet">
<metadata>
Created by potrace 1.14, written by Peter Selinger 2001-2017
</metadata>
<g transform="translate(0.000000,288.000000) scale(0.100000,-0.100000)"
fill="#000000" stroke="none">
<path d="M1 2615 c1 -274 5 -368 19 -360 4 3 10 -8 13 -23 4 -19 1 -32 -14
-44 -17 -15 -19 -28 -18 -108 1 -50 5 -107 9 -126 4 -19 4 -37 -1 -40 -15 -9
-10 -48 9 -70 11 -13 30 -22 46 -21 15 0 31 -4 36 -9 5 -5 -11 -44 -36 -88
-25 -44 -43 -85 -40 -93 3 -7 0 -12 -6 -10 -6 1 -13 -4 -15 -10 -4 -12 18 -19
42 -13 6 1 36 2 68 2 54 -1 58 0 51 20 -4 15 -3 18 7 13 8 -6 11 -4 7 6 -3 9
3 26 14 40 l20 24 -16 -27 c-9 -16 -12 -28 -6 -28 5 0 16 14 25 30 9 17 20 30
25 30 6 0 10 6 10 14 0 7 7 19 15 26 29 24 56 68 45 75 -5 3 -14 -4 -19 -17
-6 -13 -26 -41 -46 -63 -27 -29 -33 -33 -21 -12 9 15 14 32 11 37 -3 6 0 10 8
10 7 0 19 11 25 25 10 21 9 27 -3 31 -27 11 -60 -23 -101 -102 -37 -74 -52
-89 -70 -71 -8 8 31 101 55 130 16 19 17 19 -24 40 -19 10 -24 16 -13 17 9 0
21 7 26 17 9 15 13 15 56 1 l47 -16 49 49 48 48 56 -41 c31 -23 56 -44 56 -47
-1 -12 -100 -76 -112 -73 -7 2 -10 0 -6 -4 4 -4 -2 -20 -14 -37 -12 -17 -17
-28 -12 -24 16 9 56 -22 52 -41 -2 -13 -14 -16 -53 -15 -28 1 -39 -1 -25 -4
14 -2 30 -9 35 -15 7 -8 6 -9 -2 -4 -7 4 -13 3 -13 -3 0 -5 15 -11 33 -14 l32
-3 -33 -9 c-28 -6 -31 -10 -20 -24 7 -9 1 -6 -13 7 -14 12 -31 22 -37 22 -7 0
-12 5 -12 11 0 8 -5 8 -15 -1 -21 -17 -19 -27 6 -26 12 1 24 -5 26 -11 3 -8
-5 -13 -22 -13 -23 0 -26 -2 -15 -15 11 -13 8 -15 -16 -15 -16 0 -24 -4 -18
-8 7 -5 7 -14 -2 -31 l-12 -23 -12 22 c-10 18 -9 24 1 31 10 6 2 9 -23 10 -21
1 -44 2 -50 3 -7 1 -16 -3 -20 -9 -15 -21 -7 -35 19 -35 31 0 28 -5 -9 -14
-22 -5 -28 -2 -34 16 -5 13 -7 26 -6 29 0 3 -10 4 -24 1 -19 -3 -22 -7 -12
-13 10 -7 10 -9 1 -9 -7 0 -13 -7 -13 -15 0 -8 6 -15 13 -15 7 0 22 -7 33 -16
19 -15 19 -16 -1 -9 -11 4 -26 9 -34 12 -10 5 -12 -7 -10 -58 2 -35 7 -70 12
-76 6 -9 5 -13 -2 -13 -6 0 -11 -13 -11 -30 0 -28 2 -30 38 -29 l37 1 -33 10
c-33 11 -43 34 -18 44 8 3 43 -6 78 -20 69 -28 88 -31 88 -17 0 5 -10 7 -22 4
-19 -4 -20 -3 -8 7 12 9 11 10 -9 5 -14 -5 -21 -3 -17 3 3 5 -7 12 -23 15 -16
3 -42 17 -57 31 -24 21 -26 27 -14 35 8 5 18 7 22 5 5 -3 6 7 3 23 -3 15 -2
22 1 14 7 -14 64 -71 72 -71 3 0 -2 8 -11 18 -28 31 -7 43 43 26 31 -11 63
-14 102 -10 53 5 58 4 58 -14 0 -11 6 -20 14 -20 16 0 61 -58 52 -67 -3 -3
-50 8 -105 26 -124 39 -156 40 -41 1 47 -16 93 -34 102 -40 10 -5 24 -7 33 -4
10 4 15 0 15 -15 0 -12 -6 -21 -13 -21 -18 0 -67 -23 -67 -32 0 -3 -13 -9 -30
-13 l-30 -6 30 -59 29 -58 38 14 c51 18 63 17 63 -3 0 -9 -3 -13 -7 -10 -3 4
-12 2 -20 -4 -10 -9 -17 -8 -30 2 -16 13 -17 12 -4 -3 7 -10 11 -30 8 -44 -3
-17 -1 -22 6 -15 9 9 17 6 56 -16 2 -2 -2 -10 -10 -20 -12 -15 -12 -16 1 -8
12 6 13 5 3 -6 -7 -7 -13 -21 -13 -30 0 -10 -6 -20 -12 -23 -7 -3 7 -4 32 -1
125 14 324 17 411 6 249 -31 448 -122 543 -247 20 -26 39 -59 43 -73 3 -14 17
-40 30 -57 76 -101 40 -350 -74 -502 l-24 -32 130 0 c99 0 131 3 131 13 0 7 8
17 18 24 17 10 18 8 14 -13 -3 -19 0 -24 16 -24 21 0 21 0 2 42 -19 43 -19 42
16 123 7 17 16 98 20 183 7 147 8 154 35 192 16 22 29 44 29 50 0 5 9 14 21
20 11 7 18 14 15 17 -3 3 24 64 60 135 46 89 70 128 80 124 7 -3 16 -1 19 4 4
6 23 10 44 10 21 0 53 6 71 14 33 14 33 14 10 26 -14 8 -20 8 -16 1 4 -6 3
-11 -2 -11 -20 0 -32 29 -30 66 3 33 8 40 33 49 17 5 34 14 38 20 5 6 7 3 3
-7 -3 -10 -1 -20 4 -23 6 -4 10 -14 10 -24 0 -11 9 -21 22 -24 30 -8 35 -1 13
23 -12 13 -14 20 -6 20 7 0 11 5 9 11 -2 6 -7 10 -12 9 -4 -1 -14 7 -21 17
-12 15 -17 16 -34 5 -18 -10 -21 -10 -21 5 0 27 -37 82 -63 94 l-22 10 23 -5
c23 -4 23 -4 7 14 -9 10 -15 25 -13 32 3 8 40 -22 96 -78 51 -50 95 -88 98
-85 4 3 4 0 0 -7 -4 -7 -12 -10 -17 -7 -5 4 -9 -3 -9 -15 0 -12 4 -19 9 -16 5
3 20 -3 34 -14 14 -11 38 -23 54 -26 38 -8 84 -49 77 -68 -4 -11 0 -16 14 -16
21 0 40 -32 23 -38 -6 -2 -8 -9 -4 -15 8 -12 13 -33 15 -54 1 -7 5 -10 9 -8 4
3 5 14 2 25 -3 11 0 20 6 20 6 0 11 -5 11 -11 0 -20 25 -34 60 -34 42 1 82 13
75 24 -2 5 7 13 20 19 15 7 26 8 30 2 4 -6 15 -10 26 -10 10 0 18 -6 16 -12
-1 -8 6 -12 16 -10 15 3 17 -1 13 -16 -5 -13 -1 -22 10 -26 12 -4 15 -2 10 9
-3 8 -1 15 5 15 6 0 9 -8 7 -17 -3 -17 -11 -18 -111 -13 -10 1 -15 6 -11 12 5
7 2 9 -8 5 -9 -3 -19 -2 -24 3 -5 4 -18 4 -29 0 -20 -9 -20 -9 0 -9 15 -1 11
-6 -15 -20 -20 -11 -34 -26 -33 -36 0 -10 -4 -14 -12 -11 -9 3 -12 0 -8 -10 8
-22 28 -10 26 15 -3 23 7 27 25 9 8 -8 15 -8 27 2 16 13 18 7 17 -68 0 -20 4
-32 13 -32 14 0 31 -37 22 -47 -3 -2 -8 5 -12 16 -9 28 -35 15 -35 -18 0 -23
-10 -31 -75 -64 -82 -40 -85 -41 -85 -28 0 4 17 15 37 23 32 13 35 16 19 23
-10 5 -21 4 -25 -2 -3 -6 -16 -15 -29 -22 -12 -7 -20 -16 -17 -22 4 -5 0 -9
-8 -9 -8 0 -14 -7 -13 -16 0 -9 -6 -19 -14 -21 -12 -4 -12 -3 -1 5 17 12 0 24
-32 22 -12 -1 -24 -1 -27 0 -21 9 -132 5 -141 -6 -6 -7 -16 -11 -23 -8 -8 3
-16 -2 -20 -11 -8 -22 -74 -17 -91 8 -8 12 -15 15 -20 8 -3 -6 -1 -11 5 -11 6
0 8 -5 5 -10 -4 -6 -10 -8 -15 -5 -4 3 -11 -1 -14 -7 -3 -7 -4 1 -1 17 4 22 3
26 -5 15 -5 -8 -10 -32 -10 -53 0 -35 2 -38 23 -32 12 4 26 11 31 16 16 15 29
10 16 -6 -7 -8 -20 -15 -29 -15 -14 0 -14 -2 -1 -11 12 -9 12 -10 -4 -5 -21 7
-36 -8 -36 -35 0 -9 6 -16 13 -16 22 0 107 -35 107 -44 0 -5 5 -9 11 -9 5 0 7
5 3 12 -5 7 -3 8 5 4 7 -5 10 -14 7 -22 -3 -8 -2 -13 2 -13 15 2 52 -14 52
-22 0 -5 -11 -8 -25 -7 -13 1 -22 4 -20 7 3 2 -10 12 -28 22 -85 47 -117 62
-121 58 -3 -3 -7 -21 -8 -40 -2 -18 -5 -36 -8 -39 -3 -3 -17 -21 -30 -40 -25
-36 -57 -66 -94 -87 -21 -12 -21 -12 0 -13 11 0 26 6 33 13 11 10 12 9 6 -2
-6 -11 1 -13 43 -9 28 3 49 2 47 -2 -3 -5 13 -15 35 -24 58 -23 429 -24 410
-1 -7 8 -18 14 -24 13 -24 -4 -57 14 -52 29 5 11 1 13 -17 8 -12 -3 -17 -3
-12 2 6 4 11 16 11 26 2 13 -3 16 -20 12 -14 -4 -17 -3 -8 3 11 8 11 10 -1 15
-8 3 -20 0 -27 -6 -10 -9 -11 -9 -6 1 4 6 3 12 -3 12 -5 0 -12 -6 -14 -12 -4
-8 -6 -7 -6 3 -1 9 -9 23 -18 30 -16 13 -17 12 -4 -3 16 -21 2 -24 -24 -4 -18
13 -18 14 4 21 12 3 28 2 35 -4 7 -6 17 -7 21 -3 5 4 5 1 1 -5 -7 -13 -1 -15
41 -16 12 0 20 -4 16 -9 -3 -6 4 -8 18 -4 13 3 19 3 13 0 -16 -7 -5 -44 13
-44 12 0 13 -3 4 -14 -8 -10 -9 -16 -1 -21 5 -3 10 -1 10 5 0 6 5 8 12 4 8 -5
9 -1 5 14 -21 69 -21 69 2 40 12 -15 20 -32 17 -37 -3 -5 1 -14 9 -21 8 -7 12
-16 9 -21 -3 -5 -1 -9 5 -9 5 0 13 5 16 10 9 15 27 1 21 -16 -5 -12 31 -14
219 -14 l225 0 0 50 c0 51 -2 53 -45 52 -17 -1 -17 0 -2 4 26 8 13 20 -58 53
-36 17 -64 36 -63 42 2 6 -4 14 -12 16 -13 4 -13 3 0 -6 9 -6 10 -11 3 -11
-16 0 -106 39 -113 49 -10 16 -71 42 -82 35 -7 -4 -8 -3 -4 4 4 7 1 12 -9 12
-10 0 -31 11 -47 26 l-31 25 27 -7 c20 -5 26 -2 26 10 0 9 4 16 10 16 5 0 7
-6 4 -14 -4 -10 0 -13 14 -9 11 2 50 -12 93 -35 106 -56 115 -58 123 -26 4 15
4 30 -1 33 -4 3 -15 35 -24 70 l-17 65 40 42 c33 35 44 41 59 34 10 -6 28 -10
40 -10 13 0 33 -10 46 -22 l23 -21 0 461 c0 311 -3 462 -10 462 -6 0 -13 -7
-16 -15 -9 -23 -24 -18 -24 10 0 13 -6 28 -13 32 -19 12 -28 41 -14 47 7 2 4
5 -5 5 -12 1 -18 -6 -18 -19 0 -22 -17 -25 -67 -11 -35 10 -57 -4 -32 -20 12
-8 11 -11 -3 -20 -10 -5 -18 -16 -18 -23 0 -11 -9 -12 -42 -5 -57 12 -155 52
-140 57 6 2 9 9 6 17 -9 22 34 38 100 37 70 0 88 -3 98 -17 5 -6 8 -5 8 3 0 6
8 12 18 13 11 1 9 4 -8 9 l-25 8 25 0 c14 0 48 -5 75 -12 46 -11 50 -14 48
-39 -1 -15 2 -25 8 -22 5 4 9 19 9 36 0 16 5 29 10 29 22 0 8 15 -15 16 -14 1
-25 -3 -25 -9 0 -5 -9 -2 -20 8 -22 20 -29 45 -7 27 15 -13 67 -11 68 3 1 6 3
25 5 43 3 27 0 32 -16 32 -12 0 -20 -7 -20 -17 0 -14 -2 -15 -9 -4 -7 11 -10
11 -15 0 -5 -11 -7 -11 -12 -1 -3 6 -10 9 -15 6 -21 -12 -57 6 -61 31 -6 31
-9 31 129 0 16 -4 23 1 31 23 8 24 7 28 -7 28 -66 1 -83 5 -77 19 3 8 1 15 -4
15 -6 0 -10 -6 -10 -12 -1 -7 -8 -2 -16 12 -8 14 -13 18 -10 8 3 -12 -4 -18
-30 -22 -18 -4 -35 -6 -37 -4 -2 2 -12 -4 -22 -12 -17 -14 -17 -14 -4 8 8 12
20 20 27 17 21 -8 54 14 48 32 -5 13 1 14 41 9 117 -17 119 -17 98 -7 -11 5
-46 13 -77 16 -32 4 -58 11 -58 17 0 5 12 7 28 4 80 -15 122 -17 122 -6 0 7
-6 10 -13 7 -7 -3 -21 1 -31 8 -10 8 -24 11 -32 8 -8 -3 -21 0 -29 7 -8 7 -22
10 -30 6 -9 -3 -15 0 -15 9 0 8 5 15 11 15 6 0 8 7 5 16 -6 14 1 15 50 9 32
-4 63 -9 71 -12 11 -4 13 79 13 488 0 271 -2 490 -4 488 -2 -2 -7 -31 -11 -64
-8 -83 -53 -393 -70 -490 -7 -44 -17 -104 -20 -133 -5 -33 -11 -52 -19 -49
-14 5 -12 58 8 182 10 55 24 145 32 200 46 306 56 361 69 371 23 17 18 34 -9
34 -22 0 -25 -5 -31 -62 -4 -35 -13 -92 -20 -128 -8 -36 -19 -103 -24 -149 -6
-46 -15 -89 -21 -95 -5 -7 -11 -30 -12 -52 -3 -35 -6 -39 -33 -42 -56 -5 -74
-12 -80 -32 -3 -11 -11 -20 -17 -20 -5 0 -8 6 -5 13 4 10 -2 13 -19 9 -16 -3
-24 0 -25 9 0 8 -2 24 -5 36 -2 12 0 32 4 44 7 19 10 20 24 6 8 -8 26 -17 39
-19 21 -3 24 2 27 29 3 31 2 33 -26 27 -27 -5 -32 -2 -47 29 -11 23 -22 34
-31 30 -7 -3 -12 -10 -11 -16 1 -8 -10 -11 -30 -10 -23 2 -31 -1 -27 -10 3 -9
-6 -13 -29 -14 -28 -1 -33 2 -32 21 2 11 8 20 14 18 6 -1 11 10 11 25 0 22 2
25 10 13 6 -10 13 -11 19 -5 7 7 2 14 -15 22 -13 6 -22 7 -18 2 3 -5 0 -9 -7
-9 -6 0 -9 8 -6 20 3 11 1 22 -3 25 -13 8 1 45 17 45 12 0 12 2 -1 16 -15 14
-20 28 -17 46 0 4 -6 5 -15 1 -9 -3 -11 -9 -6 -12 5 -3 9 -14 9 -23 0 -12 -4
-15 -12 -8 -15 12 -25 3 -18 -15 2 -8 11 -11 19 -8 8 3 14 -1 14 -11 0 -10 -6
-13 -15 -10 -8 4 -15 1 -15 -5 0 -6 -6 -8 -14 -5 -8 3 -17 1 -21 -5 -3 -6 0
-11 8 -11 7 0 14 -6 14 -14 0 -10 -20 -14 -75 -15 -42 -1 -83 -6 -93 -11 -11
-6 -34 -5 -66 5 -26 8 -48 15 -49 15 0 0 -1 -6 -1 -14 0 -8 8 -11 19 -8 10 2
29 -3 43 -12 29 -19 52 -21 57 -4 3 8 6 7 10 -3 8 -22 -24 -83 -46 -87 -11 -3
-28 -15 -39 -28 -10 -14 -29 -24 -43 -24 -17 0 -24 -5 -24 -20 0 -23 10 -26
29 -7 11 10 14 9 18 -1 4 -10 8 -10 20 -1 12 11 13 8 8 -17 -7 -28 -6 -28 12
6 10 19 24 34 31 32 7 -1 12 6 12 15 0 14 2 15 9 5 6 -10 10 -8 16 10 6 22 7
22 13 3 9 -25 39 -26 58 -1 8 11 14 15 14 10 0 -6 -6 -16 -12 -23 -7 -6 -13
-15 -13 -19 -1 -4 -7 -17 -15 -29 -10 -15 -18 -19 -26 -12 -7 6 -15 4 -24 -6
-11 -13 -14 -13 -28 1 -14 15 -17 15 -29 -2 -8 -11 -24 -19 -36 -19 -15 0 -22
-6 -22 -20 -1 -35 -19 -54 -58 -60 -32 -5 -38 -3 -46 16 -8 22 -8 22 -13 -5
-5 -25 -3 -27 26 -26 65 4 79 1 67 -13 -8 -11 -7 -18 7 -29 21 -19 152 -25
152 -8 0 7 7 5 16 -4 21 -22 127 -22 148 0 9 8 16 11 16 5 0 -24 26 -4 36 28
9 30 44 54 44 30 0 -5 -5 -9 -11 -9 -5 0 -7 -5 -3 -11 5 -8 9 -8 14 1 5 8 13
9 21 4 8 -5 19 -9 24 -10 6 0 16 -2 23 -2 7 -1 11 -6 8 -10 -3 -5 -28 -7 -56
-5 -46 2 -50 1 -36 -13 20 -20 20 -34 0 -34 -35 0 -4 -25 37 -30 25 -3 39 -8
32 -13 -6 -4 -30 -3 -52 2 -36 8 -41 6 -47 -11 -3 -10 -3 -41 1 -69 6 -41 4
-49 -9 -49 -10 0 -13 6 -10 15 4 9 0 15 -10 15 -20 0 -21 38 -1 64 17 23 -1
62 -21 45 -9 -7 -19 -7 -32 0 -10 5 -50 13 -88 16 -38 4 -70 11 -72 16 -8 20
-116 6 -113 -15 3 -18 -1 -19 -14 -2 -13 17 -16 17 -29 3 -12 -11 -13 -16 -3
-20 15 -5 -9 -37 -28 -37 -15 0 -27 42 -19 64 4 11 0 16 -13 16 -16 0 -20 -7
-21 -32 0 -20 2 -27 7 -19 6 10 10 9 14 -4 4 -9 3 -14 -1 -11 -4 2 -14 1 -22
-5 -12 -7 -12 -9 -1 -9 7 0 11 -6 8 -14 -5 -11 6 -14 49 -12 30 1 60 -2 66 -7
9 -6 5 -7 -10 -4 -23 5 -45 -19 -40 -44 2 -8 -10 -14 -29 -16 -18 -1 -33 2
-33 7 0 6 -15 10 -34 10 -35 0 -55 13 -36 25 5 3 10 11 10 16 0 6 -4 7 -10 4
-5 -3 -10 -1 -10 4 0 6 5 11 12 11 6 0 9 3 6 6 -4 3 -16 1 -27 -6 -18 -9 -21
-8 -21 11 0 15 -5 19 -15 15 -19 -7 -19 1 -1 36 12 23 12 29 0 39 -18 15 -9
29 19 29 21 1 21 1 4 15 -11 7 -25 11 -32 9 -15 -6 -39 31 -30 46 3 5 1 11 -5
15 -5 3 -10 14 -10 25 0 22 -23 32 -56 24 -21 -5 -24 -3 -24 22 0 21 3 25 9
15 7 -11 10 -9 16 8 9 30 -4 46 -20 24 -12 -15 -16 -16 -27 -4 -11 12 -11 13
1 6 9 -5 12 -4 8 3 -7 11 -32 11 -43 0 -3 -4 -7 -34 -8 -67 -1 -34 -7 -60 -12
-59 -5 2 -8 26 -6 54 2 28 -1 69 -7 91 -10 38 -13 40 -43 37 -25 -3 -29 -1
-20 8 17 17 15 48 -3 48 -8 0 -15 -8 -15 -19 0 -10 -9 -21 -20 -24 -11 -3 -20
-9 -19 -14 3 -20 -2 -23 -17 -9 -14 14 -17 14 -36 -4 -20 -18 -23 -19 -40 -3
-10 9 -19 13 -19 10 -1 -4 -3 -11 -4 -17 -1 -5 -3 -14 -4 -19 0 -5 -17 -15
-36 -21 -19 -6 -35 -18 -35 -26 0 -9 -4 -13 -8 -10 -11 6 -31 -32 -30 -56 1
-13 5 -15 20 -7 20 11 23 2 9 -20 -6 -9 -6 -22 -1 -32 13 -24 0 -89 -17 -89
-11 0 -13 -7 -9 -27 3 -16 3 -32 -2 -38 -13 -18 -43 -17 -57 2 -16 21 -21 18
-31 -21 -6 -25 -5 -28 10 -23 10 4 22 5 26 2 14 -9 0 -35 -19 -35 -14 0 -14
-2 -1 -10 8 -5 27 -10 43 -10 20 0 27 -5 27 -20 0 -25 -15 -26 -29 -2 -9 14
-12 15 -20 2 -5 -8 -7 -18 -5 -22 3 -4 -6 -8 -20 -8 -28 0 -43 15 -24 23 10 4
11 7 0 14 -12 9 -11 35 3 101 9 39 -13 121 -27 100 -6 -10 -8 -8 -8 5 0 26
-30 21 -31 -5 0 -18 -3 -16 -13 11 -11 32 -13 22 -14 -92 -2 -104 0 -127 12
-127 10 0 12 7 8 23 -5 19 -3 20 10 9 13 -10 17 -10 21 0 2 7 8 10 12 6 4 -4
0 -19 -9 -32 -9 -14 -16 -45 -16 -70 0 -39 -3 -45 -17 -40 -15 5 -15 4 -4 -4
8 -6 16 -18 17 -27 7 -45 14 -20 14 48 0 75 9 94 28 61 7 -13 19 -16 51 -11
42 5 44 3 42 -38 -2 -37 15 -49 63 -46 43 2 60 -9 36 -24 -6 -4 -9 -19 -8 -34
2 -23 6 -27 25 -23 14 3 20 9 16 16 -4 6 2 4 12 -4 17 -14 17 -15 -8 -18 -15
-2 -25 -8 -21 -13 3 -6 -2 -9 -12 -7 -16 3 -20 -6 -25 -57 l-6 -60 -1 63 c-1
34 -6 62 -12 62 -11 0 -24 -45 -16 -58 3 -5 1 -22 -4 -38 l-8 -29 -1 32 c-1
47 -44 65 -117 48 -28 -6 -32 -4 -36 19 -4 18 -1 26 8 26 8 0 14 -7 14 -15 0
-8 5 -15 11 -15 5 0 7 5 3 12 -5 8 3 9 29 5 21 -3 37 -2 37 4 0 5 -13 9 -30 9
-16 0 -30 5 -30 10 0 6 -9 10 -19 10 -11 0 -22 6 -24 13 -3 7 -6 4 -6 -7 -1
-15 -4 -16 -16 -6 -21 17 -20 -6 0 -27 14 -13 14 -18 1 -38 -11 -16 -14 -48
-13 -117 l2 -94 -40 -1 c-34 0 -35 0 -8 4 l33 4 -3 97 c-2 92 -3 97 -25 100
-12 2 -20 8 -17 13 4 5 -16 9 -44 9 -69 0 -81 7 -81 44 0 28 5 34 38 46 20 7
57 12 81 11 41 -3 43 -2 27 14 -13 13 -15 29 -11 78 3 33 10 64 16 68 7 4 9
24 4 58 -4 30 -11 48 -17 45 -5 -3 -8 -15 -5 -25 5 -20 -4 -18 -35 8 -14 13
-16 13 -14 -2 1 -9 9 -21 17 -27 11 -8 11 -9 -3 -4 -10 3 -20 1 -23 -4 -4 -6
-2 -10 4 -10 5 0 10 -8 11 -17 0 -10 3 -43 6 -74 5 -51 3 -58 -17 -73 -13 -9
-38 -16 -56 -16 l-32 0 14 34 c8 18 12 36 8 39 -3 3 4 18 16 33 24 31 23 33
-13 40 -26 4 -26 4 -23 -51 2 -30 0 -55 -5 -55 -4 0 -8 9 -8 20 0 12 -9 24
-22 29 l-23 8 23 7 c28 9 28 31 0 50 l-22 16 22 0 c14 0 22 6 23 18 0 13 2 12
9 -5 14 -35 19 -28 17 21 -2 45 -17 78 -17 38 0 -18 -6 -22 -31 -22 -16 0 -28
4 -24 9 3 5 -3 11 -12 14 -10 2 -1 2 20 0 33 -4 37 -2 37 17 0 12 5 18 10 15
5 -3 10 -1 10 5 0 7 -9 14 -20 17 -11 3 -20 9 -20 13 0 5 -3 15 -6 24 -3 9 -1
16 6 16 6 0 8 -4 5 -10 -3 -5 1 -10 9 -10 12 0 14 5 7 23 -4 12 -6 28 -4 35 3
6 -1 12 -7 12 -7 0 -10 7 -6 15 3 8 1 15 -4 15 -6 0 -9 3 -9 8 4 24 -3 43 -18
49 -10 4 -24 15 -31 25 -20 27 -32 22 -26 -12 5 -23 3 -30 -9 -30 -9 0 -19 5
-22 11 -4 6 -14 8 -22 4 -13 -4 -14 -3 -4 9 7 8 10 20 6 26 -3 5 -2 10 4 10 5
0 11 -8 13 -17 3 -17 4 -17 10 -1 4 10 2 23 -5 30 -14 14 -14 24 -3 51 5 9 5
25 0 35 -4 9 -6 21 -5 27 2 9 -35 -19 -52 -40 -6 -6 -10 -6 -14 3 -2 6 -14 12
-26 12 -15 0 -18 -3 -9 -8 17 -12 4 -45 -15 -37 -11 4 -13 1 -9 -10 3 -10 -1
-18 -11 -22 -9 -4 -18 -2 -20 3 -2 6 -21 9 -43 8 -22 -1 -38 2 -35 6 3 5 -5
16 -17 24 -16 12 -24 13 -29 4 -4 -7 -5 -16 -3 -20 3 -4 -1 -5 -8 -3 -8 3 -14
14 -14 25 0 10 5 16 11 14 5 -3 1 2 -10 12 -20 16 -20 16 4 11 14 -4 29 0 38
9 8 8 19 12 24 9 5 -4 6 1 3 9 -3 9 -10 13 -15 10 -5 -3 -9 0 -9 5 0 6 -10 11
-22 11 -21 0 -21 0 -2 16 10 8 13 13 7 9 -7 -3 -13 -1 -13 4 0 6 5 11 11 11 8
0 7 5 -1 15 -9 11 -15 12 -20 5 -4 -6 -14 -8 -22 -5 -9 4 -19 1 -23 -4 -3 -6
-11 -9 -16 -5 -5 3 -6 11 -2 17 4 8 1 7 -9 -1 -13 -10 -17 -10 -21 0 -4 11 -6
10 -6 0 -1 -7 -6 -10 -13 -6 -7 4 -8 3 -4 -5 7 -11 -32 -33 -46 -24 -5 2 -8
-1 -8 -6 0 -6 -3 -10 -7 -9 -5 1 -20 -5 -35 -12 -31 -15 -33 -25 -19 -142 4
-38 3 -68 -1 -68 -4 0 -8 20 -8 45 0 35 -4 45 -17 45 -9 0 -13 3 -10 6 8 9
-11 44 -23 44 -6 0 -10 -4 -10 -10 0 -5 -12 -21 -26 -35 -22 -22 -28 -24 -42
-13 -10 7 -18 12 -19 13 -1 0 -13 99 -28 220 -14 121 -30 229 -35 240 -5 12
-9 -87 -9 -250z m2409 -51 c0 -8 -4 -12 -10 -9 -5 3 -10 10 -10 16 0 5 5 9 10
9 6 0 10 -7 10 -16z m-143 -20 c-3 -3 -12 -4 -19 -1 -8 3 -5 6 6 6 11 1 17 -2
13 -5z m54 -35 c15 -7 18 -16 13 -32 -9 -30 -6 -29 -68 -34 -38 -3 -56 -1 -56
7 0 6 8 9 18 6 13 -5 22 1 30 19 6 14 19 25 27 25 9 0 13 5 10 10 -8 13 1 13
26 -1z m-1579 -74 c0 -5 -5 -11 -11 -13 -6 -2 -11 4 -11 13 0 9 5 15 11 13 6
-2 11 -8 11 -13z m805 -27 c-3 -8 -6 -5 -6 6 -1 11 2 17 5 13 3 -3 4 -12 1
-19z m-1042 3 c3 -5 2 -12 -3 -15 -5 -3 -9 1 -9 9 0 17 3 19 12 6z m215 -38
c0 -2 -5 -1 -11 2 -6 4 -17 -2 -25 -14 -19 -27 -31 -27 -39 0 -10 32 22 51 52
32 13 -9 23 -17 23 -20z m806 17 c8 0 14 -9 14 -20 0 -11 -4 -20 -9 -20 -5 0
-16 -2 -23 -5 -11 -4 -13 3 -10 32 3 21 7 32 9 26 3 -7 11 -13 19 -13z m899
10 c-4 -6 -2 -17 5 -25 6 -8 7 -16 2 -19 -6 -3 -12 4 -15 16 -6 21 -1 38 9 38
3 0 2 -5 -1 -10z m-2305 -49 c0 -17 -35 -4 -38 13 -3 15 -1 16 17 6 12 -6 21
-15 21 -19z m510 4 c0 -8 -4 -15 -10 -15 -5 0 -10 7 -10 15 0 8 5 15 10 15 6
0 10 -7 10 -15z m80 -4 c0 -5 -5 -11 -11 -13 -9 -3 -8 -11 1 -28 12 -22 11
-24 -2 -13 -8 7 -17 10 -20 7 -3 -3 -9 -1 -13 5 -3 6 -1 11 6 11 7 0 9 3 6 7
-8 7 11 33 24 33 5 0 9 -4 9 -9z m-353 -63 c-3 -7 -5 -2 -5 12 0 14 2 19 5 13
2 -7 2 -19 0 -25z m135 0 c-8 -8 -9 -4 -5 13 4 13 8 18 11 10 2 -7 -1 -18 -6
-23z m-250 -22 c2 -19 0 -32 -4 -30 -8 5 -12 64 -4 64 2 0 6 -15 8 -34z m2235
12 c-3 -8 -6 -5 -6 6 -1 11 2 17 5 13 3 -3 4 -12 1 -19z m-1697 2 c0 -4 -6
-12 -12 -19 -11 -10 -10 -14 4 -22 12 -7 16 -19 14 -39 -2 -16 2 -31 8 -33 6
-2 9 -7 6 -10 -9 -10 -33 10 -35 30 -7 50 -19 83 -32 83 -8 0 -12 3 -10 8 6 8
57 10 57 2z m-260 -15 c0 -7 8 -19 18 -24 9 -6 15 -11 12 -11 -31 -7 -41 -7
-46 1 -3 5 1 9 8 9 9 1 7 5 -4 14 -10 7 -15 16 -11 19 11 12 23 8 23 -8z
m1090 5 c0 -5 -5 -10 -11 -10 -5 0 -7 5 -4 10 3 6 8 10 11 10 2 0 4 -4 4 -10z
m1044 -5 c-4 -8 -8 -15 -10 -15 -2 0 -4 7 -4 15 0 8 4 15 10 15 5 0 7 -7 4
-15z m-2064 -5 c0 -5 -5 -10 -11 -10 -5 0 -7 5 -4 10 3 6 8 10 11 10 2 0 4 -4
4 -10z m1120 0 c0 -5 -9 -10 -21 -10 -11 0 -17 5 -14 10 3 6 13 10 21 10 8 0
14 -4 14 -10z m-64 -62 c-1 -24 -4 -65 -6 -93 l-3 -50 -6 59 c-7 67 -3 126 9
126 4 0 7 -19 6 -42z m1061 17 c-9 -8 -22 -15 -29 -15 -7 1 -3 9 11 21 27 22
42 18 18 -6z m-2035 -10 c3 -16 1 -25 -7 -25 -8 0 -10 9 -7 25 2 14 6 25 7 25
1 0 5 -11 7 -25z m-414 -105 c-1 -29 -2 -26 -8 15 -11 69 -10 126 1 65 4 -25
7 -61 7 -80z m132 107 c0 -8 -7 -14 -15 -14 -11 0 -12 4 -4 14 6 7 13 13 15
13 2 0 4 -6 4 -13z m65 -55 c-11 -11 -27 17 -20 35 6 16 8 16 16 -6 5 -13 7
-26 4 -29z m2188 41 c-7 -2 -21 -2 -30 0 -10 3 -4 5 12 5 17 0 24 -2 18 -5z
m82 -14 c-2 -12 -9 -27 -16 -35 -6 -8 -7 -14 -2 -14 5 0 9 -9 9 -20 0 -11 -6
-20 -13 -20 -7 0 -13 10 -13 21 0 16 -3 19 -13 11 -14 -12 -83 -9 -95 3 -4 4
14 5 40 3 38 -4 47 -2 51 13 3 13 0 16 -12 13 -9 -3 -5 2 9 10 14 8 21 16 15
16 -10 1 23 18 37 19 4 1 5 -8 3 -20z m-2127 -36 c1 -27 -3 -55 -8 -63 -5 -8
-10 -11 -10 -6 0 5 -6 4 -13 -3 -11 -8 -13 -4 -9 20 3 19 8 26 12 19 5 -8 9
-7 14 5 10 28 7 45 -9 45 -16 0 -20 12 -8 23 18 19 30 4 31 -40z m-178 33 c0
-3 -4 -8 -10 -11 -5 -3 -10 -1 -10 4 0 6 5 11 10 11 6 0 10 -2 10 -4z m1410
-6 c0 -5 -4 -10 -10 -10 -5 0 -10 5 -10 10 0 6 5 10 10 10 6 0 10 -4 10 -10z
m-1390 -31 c0 -6 -4 -7 -10 -4 -5 3 -10 1 -10 -6 0 -7 -2 -10 -5 -7 -9 8 6 38
16 32 5 -3 9 -10 9 -15z m256 -4 c-1 -25 -7 -31 -19 -19 -4 5 13 44 19 44 1 0
1 -11 0 -25z m-402 -1 c3 -8 2 -12 -4 -9 -6 3 -10 10 -10 16 0 14 7 11 14 -7z
m496 -3 c0 -6 -4 -13 -10 -16 -5 -3 -10 -16 -11 -28 0 -21 -1 -21 -8 -2 -5 11
-4 22 0 23 5 2 9 10 9 18 0 8 5 14 10 14 6 0 10 -4 10 -9z m1770 -1 c0 -5 -2
-10 -4 -10 -3 0 -8 5 -11 10 -3 6 -1 10 4 10 6 0 11 -4 11 -10z m-2060 -19 c0
-11 3 -27 7 -37 4 -11 2 -15 -7 -12 -14 4 -21 68 -7 68 4 0 7 -9 7 -19z m1295
9 c-3 -5 -11 -10 -16 -10 -6 0 -7 5 -4 10 3 6 11 10 16 10 6 0 7 -4 4 -10z
m-444 -17 c13 -16 12 -17 -3 -4 -10 7 -18 15 -18 17 0 8 8 3 21 -13z m-878 0
c-7 -2 -13 -11 -13 -19 0 -8 -5 -14 -11 -14 -6 0 -8 7 -5 16 5 14 4 15 -8 5
-11 -9 -16 -9 -22 0 -4 7 -3 9 4 5 6 -3 13 -2 17 4 3 5 16 10 28 9 12 0 16 -3
10 -6z m1880 -4 c33 -9 52 -29 27 -29 -5 0 -10 -7 -10 -15 0 -24 -16 -17 -30
13 -11 22 -14 24 -18 9 -2 -11 -9 -16 -18 -13 -11 4 -14 -7 -14 -54 0 -39 4
-60 12 -60 6 0 8 -3 4 -7 -15 -15 -36 32 -36 79 0 26 -4 48 -10 48 -5 0 -10
-5 -10 -11 0 -7 -8 -18 -17 -25 -16 -12 -16 -13 -2 -14 12 0 15 -7 11 -25 -2
-14 -9 -25 -14 -25 -6 0 -7 7 -4 16 4 9 1 23 -5 30 -9 11 -9 17 0 28 15 18 -5
26 -61 26 -23 0 -38 3 -35 7 4 3 38 5 76 4 54 -2 70 1 74 13 7 19 28 20 80 5z
m-1653 -3 c0 -2 -7 -7 -16 -10 -8 -3 -12 -2 -9 4 6 10 25 14 25 6z m2062 -46
c-2 -16 -8 -30 -13 -30 -5 0 -9 14 -9 30 0 18 5 30 13 30 9 0 12 -10 9 -30z
m-942 -13 c0 -5 -4 -5 -10 -2 -5 3 -10 14 -10 23 0 15 2 15 10 2 5 -8 10 -19
10 -23z m-1330 2 c0 -18 -2 -19 -15 -9 -9 8 -15 9 -15 2 0 -6 5 -14 11 -18 8
-4 7 -9 -2 -15 -19 -11 -29 20 -15 44 15 24 36 21 36 -4z m1688 0 c2 -12 -5
-14 -33 -11 -22 3 -35 10 -35 19 0 20 64 12 68 -8z m-1538 -3 c0 -3 -4 -8 -10
-11 -5 -3 -10 -1 -10 4 0 6 5 11 10 11 6 0 10 -2 10 -4z m-340 -25 c0 -5 -9
-11 -20 -14 -11 -3 -18 0 -17 7 4 23 37 30 37 7z m407 4 c0 -8 -4 -15 -9 -15
-4 0 -8 7 -8 15 0 8 4 15 8 15 5 0 9 -7 9 -15z m97 0 c3 -8 12 -15 21 -15 8 0
15 -4 15 -10 0 -5 -5 -10 -12 -10 -14 0 -48 30 -48 42 0 14 18 9 24 -7z m333
9 c-3 -3 -12 -4 -19 -1 -8 3 -5 6 6 6 11 1 17 -2 13 -5z m1016 -26 c9 0 18 -3
18 -9 4 -32 3 -49 -4 -49 -4 0 -18 0 -32 0 -20 0 -25 5 -25 25 0 15 -6 25 -14
25 -8 0 -18 5 -22 11 -4 8 3 9 27 3 19 -4 42 -7 52 -6z m227 0 c0 -7 -5 -20
-10 -28 -8 -12 -10 -9 -10 13 0 15 5 27 10 27 6 0 10 -6 10 -12z m25 -8 c3 -5
1 -10 -4 -10 -6 0 -11 5 -11 10 0 6 2 10 4 10 3 0 8 -4 11 -10z m345 -2 c0 -7
-5 -29 -10 -49 -5 -19 -11 -51 -13 -70 -2 -28 -7 -34 -29 -37 -19 -2 -27 2
-30 15 -6 29 3 51 20 48 10 -1 11 0 5 2 -7 3 -12 17 -12 31 1 18 3 21 6 9 6
-25 25 -16 30 14 5 36 11 49 23 49 5 0 10 -6 10 -12z m-2166 -14 c4 -9 4 -19
1 -22 -3 -3 -5 0 -5 6 0 7 -7 12 -16 12 -8 0 -12 5 -9 10 9 15 22 12 29 -6z
m1405 -43 c0 -25 -1 -25 -9 -4 -10 24 -43 38 -62 27 -7 -4 -10 -4 -6 1 4 4 0
14 -10 21 -12 9 -1 8 36 -3 45 -15 52 -20 51 -42z m-1180 23 c-14 -18 -24 -11
-15 11 3 9 11 13 16 10 8 -5 7 -11 -1 -21z m1825 2 c-5 -14 -9 -15 -15 -5 -4
8 -11 10 -15 6 -11 -10 16 -37 37 -37 11 0 19 -4 19 -10 0 -5 -20 -10 -45 -10
-25 0 -45 5 -45 10 0 6 9 10 20 10 19 0 20 1 5 24 -16 24 -16 24 9 22 14 -2
26 1 26 7 0 6 2 8 5 5 3 -3 2 -13 -1 -22z m39 4 c-3 -11 -9 -20 -14 -20 -10 0
-12 24 -2 33 13 13 21 7 16 -13z m-438 -20 c3 -5 1 -10 -4 -10 -6 0 -11 5 -11
10 0 6 2 10 4 10 3 0 8 -4 11 -10z m145 -2 c0 6 4 12 9 12 5 0 7 -9 4 -20 -6
-22 -11 -24 -32 -11 -7 5 -10 14 -6 21 6 9 9 9 16 -1 6 -10 9 -11 9 -1z m-466
-23 c26 -2 54 -10 63 -16 12 -10 19 -10 35 0 25 16 32 9 24 -24 -4 -17 -13
-25 -27 -25 -16 0 -19 -4 -13 -17 14 -32 11 -88 -5 -85 -8 2 -43 3 -78 3 -59
0 -64 2 -78 29 -18 35 -18 36 -2 38 67 6 100 21 51 24 -16 0 -33 2 -39 3 -5 2
-15 3 -22 4 -7 0 -10 8 -6 17 3 9 8 12 12 5 5 -7 11 -7 21 0 11 8 12 12 3 16
-14 5 -18 35 -6 46 4 4 10 2 13 -3 4 -6 28 -13 54 -15z m199 -19 c27 -6 27 -7
10 -31 -18 -25 -57 -33 -68 -15 -3 6 -1 10 6 10 10 0 10 3 2 11 -14 14 -6 39
10 34 7 -2 24 -6 40 -9z m402 3 c4 -6 13 -8 21 -5 8 3 14 -1 14 -10 0 -23 -74
-15 -78 9 -4 19 32 25 43 6z m-1642 -51 c-2 -4 -10 -2 -17 4 -9 9 -10 15 -2
24 8 9 12 8 17 -5 4 -9 5 -19 2 -23z m1702 32 c3 -5 1 -10 -4 -10 -6 0 -11 5
-11 10 0 6 2 10 4 10 3 0 8 -4 11 -10z m85 0 c0 -5 -7 -10 -16 -10 -8 0 -12 5
-9 10 3 6 10 10 16 10 5 0 9 -4 9 -10z m-2154 -29 c-4 -6 -12 -11 -18 -11 -7
0 -7 4 1 13 6 8 9 16 7 19 -1 3 1 2 7 -2 5 -5 6 -13 3 -19z m1774 -43 c0 -36
-4 -48 -15 -48 -11 0 -15 13 -15 53 0 30 3 57 7 60 12 13 23 -17 23 -65z m170
57 c0 -8 -4 -15 -10 -15 -5 0 -10 7 -10 15 0 8 5 15 10 15 6 0 10 -7 10 -15z
m-268 -51 c-4 -83 -8 -91 -41 -86 -22 3 -30 10 -34 32 -7 32 9 100 23 100 14
0 13 -33 -1 -47 -6 -6 -8 -20 -4 -32 11 -34 35 0 35 49 0 29 4 40 13 37 8 -2
11 -21 9 -53z m33 1 c-7 -28 -14 -41 -14 -29 -1 22 19 87 25 82 2 -2 -3 -26
-11 -53z m280 35 c-3 -5 -10 -10 -16 -10 -5 0 -9 5 -9 10 0 6 7 10 16 10 8 0
12 -4 9 -10z m155 -1 c0 -14 -17 -18 -53 -12 -51 8 -46 18 8 19 25 0 45 -3 45
-7z m-295 -19 c3 -5 1 -10 -4 -10 -6 0 -11 5 -11 10 0 6 2 10 4 10 3 0 8 -4
11 -10z m-636 -45 c18 -20 31 -39 27 -42 -3 -4 -6 0 -7 8 0 8 -5 3 -10 -10 -9
-23 -10 -23 -29 -6 -11 10 -20 24 -20 32 0 7 -5 12 -12 11 -6 -2 -13 6 -15 17
-3 16 -2 17 6 5 9 -13 11 -13 11 3 0 25 12 21 49 -18z m381 31 c0 -3 -4 -8
-10 -11 -5 -3 -10 -1 -10 4 0 6 5 11 10 11 6 0 10 -2 10 -4z m-715 -16 c3 -6
-1 -7 -9 -4 -18 7 -21 14 -7 14 6 0 13 -4 16 -10z m975 0 c0 -5 -4 -10 -10
-10 -5 0 -10 5 -10 10 0 6 5 10 10 10 6 0 10 -4 10 -10z m250 -10 c0 -13 -10
-24 -27 -31 -32 -12 -48 0 -38 30 9 30 65 30 65 1z m-241 -21 c-24 -15 -30
-10 -11 9 9 10 19 14 21 9 2 -5 -3 -13 -10 -18z m46 25 c13 -5 14 -8 3 -15
-19 -13 -28 -11 -28 6 0 17 2 18 25 9z m225 -3 c0 -6 -4 -13 -10 -16 -5 -3
-10 1 -10 9 0 9 5 16 10 16 6 0 10 -4 10 -9z m-2250 -11 c0 -5 -4 -10 -10 -10
-5 0 -10 5 -10 10 0 6 5 10 10 10 6 0 10 -4 10 -10z m490 -16 c0 -8 -4 -14
-10 -14 -5 0 -10 9 -10 21 0 11 5 17 10 14 6 -3 10 -13 10 -21z m1426 -9 c-3
-8 -16 -15 -28 -14 l-23 0 23 9 c12 5 22 17 23 27 0 11 3 13 6 5 3 -7 2 -19
-1 -27z m224 20 c0 -5 -11 -11 -25 -11 -15 -1 -25 3 -25 12 0 9 9 13 25 12 14
-1 25 -7 25 -13z m-2310 -14 c0 -4 -9 -18 -20 -31 -22 -26 -26 -14 -9 24 11
23 29 27 29 7z m586 -36 c-3 -8 3 -16 12 -18 15 -4 15 -5 -2 -12 -21 -9 -40
13 -26 31 6 6 6 15 2 19 -4 5 -1 5 6 1 7 -5 11 -14 8 -21z m1284 21 c0 -3 -4
-8 -10 -11 -5 -3 -10 -1 -10 4 0 6 5 11 10 11 6 0 10 -2 10 -4z m510 -6 c0 -5
-5 -10 -11 -10 -5 0 -7 -5 -4 -10 3 -6 -1 -13 -9 -16 -23 -9 -19 -21 9 -28 34
-9 31 -22 -6 -35 -55 -19 -61 -16 -55 32 3 23 3 34 0 25 -7 -23 -40 -23 -48
-2 -8 21 -6 23 30 26 16 1 40 8 54 15 30 16 40 16 40 3z m-1917 -35 c-3 -9 -8
-14 -10 -11 -3 3 -2 9 2 15 9 16 15 13 8 -4z m2140 -32 c20 -3 37 -9 37 -14 0
-12 -7 -12 -80 11 -61 19 -56 19 43 3z m-808 -13 c-28 -12 -37 -12 -30 0 3 6
16 10 28 9 21 0 21 -1 2 -9z m-1925 -21 c0 -5 4 -7 10 -4 6 4 7 -1 3 -11 -4
-11 -8 -13 -11 -6 -2 7 -8 10 -13 6 -5 -3 -9 2 -9 10 0 9 5 16 10 16 6 0 10
-5 10 -11z m336 -5 c-3 -9 -6 -20 -6 -25 0 -5 -4 -9 -10 -9 -5 0 -10 11 -10
25 0 16 6 25 16 25 11 0 14 -5 10 -16z m1684 -41 c0 -7 -4 -13 -10 -13 -5 0
-10 12 -10 28 0 21 2 24 10 12 5 -8 10 -21 10 -27z m227 -17 c18 -13 21 -21
13 -31 -8 -10 -7 -14 2 -17 8 -3 4 -13 -14 -30 -15 -14 -26 -27 -23 -29 2 -3
-17 -5 -43 -4 -39 0 -47 3 -50 20 -1 11 10 34 27 53 16 17 26 32 22 32 -14 0
-7 40 9 50 10 6 18 4 24 -8 5 -9 20 -25 33 -36z m21 42 c-3 -7 -11 -13 -18
-13 -7 0 -15 6 -17 13 -3 7 4 12 17 12 13 0 20 -5 18 -12z m-198 -13 c0 -8 -4
-15 -10 -15 -5 0 -10 7 -10 15 0 8 5 15 10 15 6 0 10 -7 10 -15z m249 -5 c-8
-4 -25 -11 -39 -14 -19 -6 -21 -5 -10 3 8 6 11 11 7 11 -5 0 -6 4 -3 9 3 4 17
6 32 3 19 -3 22 -7 13 -12z m433 -12 c-7 -7 -12 -8 -12 -2 0 14 12 26 19 19 2
-3 -1 -11 -7 -17z m-226 1 c32 -7 64 -16 71 -21 7 -6 16 -7 21 -4 6 3 15 -1
22 -9 7 -8 16 -12 21 -9 5 3 9 1 9 -5 0 -15 -18 -23 -25 -11 -4 6 -11 7 -17 4
-6 -4 -8 -2 -5 4 5 7 -19 10 -75 8 -91 -2 -218 24 -183 38 12 4 21 3 23 -3 5
-16 29 -13 36 4 7 18 24 19 102 4z m228 -30 c-2 -4 -10 -6 -17 -4 -7 2 -38 9
-69 15 -32 6 -58 15 -58 19 0 5 34 1 75 -7 41 -8 72 -18 69 -23z m-677 15 c-3
-3 -12 -4 -19 -1 -8 3 -5 6 6 6 11 1 17 -2 13 -5z m-1337 -18 c0 -2 -7 -6 -15
-10 -8 -3 -15 -1 -15 4 0 6 7 10 15 10 8 0 15 -2 15 -4z m-43 -60 c-3 -7 -15
-16 -27 -19 -16 -4 -20 -1 -18 12 2 10 -3 25 -11 34 -11 15 -11 17 2 17 8 0
18 -6 20 -12 3 -7 6 -4 6 7 1 18 2 18 17 -3 9 -13 14 -29 11 -36z m-667 34
c18 -12 2 -12 -25 0 -13 6 -15 9 -5 9 8 0 22 -4 30 -9z m227 -27 c-3 -10 -5
-4 -5 12 0 17 2 24 5 18 2 -7 2 -21 0 -30z m1717 -13 c1 -27 -1 -28 -11 -13
-7 9 -13 28 -13 42 0 37 23 10 24 -29z m171 40 c-3 -5 -12 -10 -18 -10 -7 0
-6 4 3 10 19 12 23 12 15 0z m-1247 -57 c-10 -2 -28 -2 -40 0 -13 2 -5 4 17 4
22 1 32 -1 23 -4z m1422 -51 c0 -13 -4 -20 -10 -17 -5 3 -10 21 -10 38 0 24 3
28 10 17 5 -8 10 -25 10 -38z m-1531 -4 c1 -23 -1 -40 -4 -37 -9 10 -16 79 -7
79 4 0 9 -19 11 -42z m324 -1 c20 -21 37 -44 37 -52 0 -22 -14 -18 -25 7 -6
13 -19 24 -30 26 -22 4 -45 29 -45 48 0 21 23 10 63 -29z m-353 6 c0 -22 -2
-25 -10 -13 -13 20 -13 40 0 40 6 0 10 -12 10 -27z m-30 -5 c0 -18 -2 -20 -9
-8 -6 8 -7 18 -5 22 9 14 14 9 14 -14z m177 -10 c-3 -7 -5 -2 -5 12 0 14 2 19
5 13 2 -7 2 -19 0 -25z m1723 2 c0 -5 -4 -10 -10 -10 -5 0 -10 5 -10 10 0 6 5
10 10 10 6 0 10 -4 10 -10z m30 -10 c0 -5 -4 -10 -10 -10 -5 0 -10 5 -10 10 0
6 5 10 10 10 6 0 10 -4 10 -10z m-1713 -52 c-2 -13 -4 -5 -4 17 -1 22 1 32 4
23 2 -10 2 -28 0 -40z m1743 42 c0 -5 -2 -10 -4 -10 -3 0 -8 5 -11 10 -3 6 -1
10 4 10 6 0 11 -4 11 -10z m-1827 -62 c3 -10 5 -18 3 -18 -6 0 -46 66 -46 75
0 11 35 -36 43 -57z m54 40 c-3 -8 -6 -5 -6 6 -1 11 2 17 5 13 3 -3 4 -12 1
-19z m208 -46 c17 -31 37 -56 44 -54 7 1 10 -2 6 -8 -4 -7 3 -9 22 -5 24 5 25
5 10 -5 -10 -7 -25 -9 -34 -6 -18 7 -56 -22 -47 -35 3 -5 1 -9 -5 -9 -14 0
-43 -58 -36 -70 19 -30 -101 20 -165 70 -24 18 -24 19 -8 54 l17 35 35 -14
c44 -19 42 -19 42 4 0 11 -3 18 -7 16 -8 -6 -29 41 -22 49 3 3 11 2 17 -3 10
-7 103 -41 114 -41 3 0 -3 9 -13 20 -10 11 -15 20 -11 20 4 0 2 8 -3 19 -10
18 -4 37 8 25 3 -3 19 -31 36 -62z m73 61 c-18 -5 -26 -33 -9 -33 17 0 22 -34
7 -48 -13 -13 -15 -10 -21 22 -9 44 -1 66 22 65 17 -1 17 -2 1 -6z m1198 -22
c67 -32 145 -54 167 -45 8 3 45 -4 81 -15 66 -20 67 -20 86 -1 21 21 56 28 45
9 -4 -6 -9 -27 -11 -47 -4 -47 -8 -64 -15 -77 -4 -5 -5 -21 -4 -35 1 -14 -5
-31 -14 -38 -14 -11 -14 -11 2 -6 16 6 16 4 6 -19 -7 -15 -16 -24 -20 -21 -5
3 -9 1 -9 -4 0 -6 -7 -12 -15 -15 -11 -5 -13 0 -8 25 4 21 3 29 -5 24 -6 -3
-14 0 -19 7 -11 19 -39 27 -51 15 -7 -7 -14 -4 -21 11 -7 12 -19 21 -28 21
-13 0 -13 3 -3 15 10 12 10 15 0 15 -8 0 -11 2 -8 5 6 7 71 -16 79 -27 3 -6 9
-9 13 -9 25 4 46 -1 46 -9 0 -6 -10 -6 -27 0 l-28 10 24 -20 c23 -20 52 -27
50 -12 -3 30 -22 46 -84 67 -39 13 -74 20 -78 15 -5 -4 -23 -3 -40 3 -62 21
-107 41 -107 48 0 4 -9 10 -19 14 -12 3 -18 12 -15 20 3 8 13 11 22 8 10 -3 8
1 -6 11 -12 10 -20 21 -17 26 3 5 0 12 -6 16 -8 5 -9 3 -4 -6 6 -9 4 -11 -4
-6 -7 5 -10 14 -7 21 2 7 -1 18 -7 24 -17 17 -5 14 59 -18z m324 19 c0 -5 -2
-10 -4 -10 -3 0 -8 5 -11 10 -3 6 -1 10 4 10 6 0 11 -4 11 -10z m-1832 -25
c-3 -3 -9 2 -12 12 -6 14 -5 15 5 6 7 -7 10 -15 7 -18z m1742 -8 c18 3 56 -24
47 -34 -4 -3 -15 1 -25 10 -10 10 -21 14 -25 11 -3 -4 -14 -3 -24 1 -10 5 -21
7 -25 7 -5 -1 -8 2 -8 7 0 15 24 20 35 7 6 -6 17 -11 25 -9z m146 -2 c-3 -9
-10 -13 -16 -10 -5 3 -10 1 -10 -6 0 -7 -3 -9 -7 -6 -3 4 -12 2 -19 -4 -13
-11 -34 -5 -34 11 0 4 9 6 20 3 14 -4 20 0 20 10 0 9 10 17 23 19 28 5 31 3
23 -17z m-2030 6 c-3 -5 1 -22 9 -37 8 -16 15 -34 15 -40 0 -6 9 -33 21 -58
16 -37 18 -50 9 -62 -17 -20 -38 -17 -45 6 -9 29 -28 13 -22 -19 3 -15 2 -33
-2 -40 -10 -16 -55 35 -77 87 -25 60 -10 59 21 -1 15 -32 30 -55 32 -53 2 2
-3 31 -11 65 -13 54 -13 61 0 50 13 -10 13 -8 4 15 -15 41 -12 44 17 11 l26
-30 -22 38 c-26 48 -27 55 -1 32 20 -18 20 -18 14 13 -4 22 -3 32 5 32 7 0 10
-4 7 -9z m65 -41 c17 -27 34 -50 39 -50 4 0 10 -10 13 -21 10 -37 -58 36 -76
82 -8 21 -13 39 -11 39 2 0 18 -22 35 -50z m38 -35 c0 -5 -6 1 -14 15 -8 14
-14 30 -14 35 0 6 6 -1 14 -15 8 -14 14 -29 14 -35z m436 -5 c4 -7 -8 -8 -37
-4 -57 9 -61 14 -10 14 22 0 44 -5 47 -10z m-921 -31 c-8 -13 -24 -1 -24 18 0
13 3 13 15 3 8 -7 12 -16 9 -21z m1104 -12 c21 -13 47 -27 60 -31 12 -4 22
-13 22 -19 0 -17 -20 -46 -20 -30 0 7 -7 10 -15 7 -8 -3 -38 2 -67 12 -45 16
-49 19 -26 22 36 4 26 29 -15 37 -18 4 -40 9 -51 12 -14 4 -16 2 -11 -8 5 -8
-2 -5 -16 6 -13 11 -26 21 -28 22 -2 1 27 1 63 -1 50 -3 77 -10 104 -29z m884
24 c5 -12 110 -59 152 -66 31 -6 36 -11 36 -34 0 -25 6 -29 71 -50 39 -12 69
-25 66 -27 -3 -3 -33 4 -68 15 -64 22 -116 28 -91 12 10 -6 9 -10 -7 -14 -12
-3 -21 -2 -21 2 0 4 -12 12 -27 18 -58 25 -98 54 -98 71 0 10 -7 16 -17 14
-17 -3 -27 21 -20 51 5 18 18 23 24 8z m-1739 -36 c25 -35 7 -30 -21 6 -13 16
-18 27 -10 24 7 -3 21 -17 31 -30z m-54 -9 c-3 -3 -11 5 -18 17 -13 21 -12 21
5 5 10 -10 16 -20 13 -22z m831 -12 c0 -2 -7 -4 -15 -4 -8 0 -15 4 -15 10 0 5
7 7 15 4 8 -4 15 -8 15 -10z m-530 -19 c13 -14 21 -25 18 -25 -2 0 -15 11 -28
25 -13 14 -21 25 -18 25 2 0 15 -11 28 -25z m1270 -59 c0 -3 -4 -8 -10 -11 -5
-3 -10 -1 -10 4 0 6 5 11 10 11 6 0 10 -2 10 -4z m455 -36 c3 -5 15 -10 26
-10 11 0 22 -7 25 -15 5 -12 10 -13 20 -4 11 9 14 8 14 -4 0 -24 -19 -31 -39
-13 -10 9 -22 16 -27 16 -16 0 -64 24 -64 33 0 11 38 9 45 -3z m-1775 -40
c-20 -13 -33 -13 -25 0 3 6 14 10 23 10 15 0 15 -2 2 -10z m1916 -17 c-2 -16
-8 -49 -11 -75 -3 -27 -12 -48 -18 -48 -9 0 -9 -2 1 -8 9 -7 10 -21 1 -68 -7
-32 -17 -65 -23 -73 -8 -11 -8 -13 2 -7 15 9 15 5 2 -28 -5 -14 -19 -30 -32
-37 -21 -11 -22 -11 -9 4 9 11 10 17 2 17 -17 0 -1 53 21 68 10 7 18 18 18 23
0 6 -7 4 -15 -5 -14 -14 -18 -14 -34 2 -21 20 -18 30 4 12 13 -11 15 -8 15 22
0 19 3 38 7 41 6 7 12 48 13 93 0 12 10 26 23 33 12 6 14 9 5 7 -12 -4 -18 0
-18 11 0 15 27 42 43 43 5 0 6 -12 3 -27z m-1836 7 c13 -9 13 -10 0 -10 -8 0
-22 5 -30 10 -13 9 -13 10 0 10 8 0 22 -5 30 -10z m1320 -10 c18 -12 2 -12
-25 0 -13 6 -15 9 -5 9 8 0 22 -4 30 -9z m336 -25 c-5 -14 30 -32 41 -21 4 3
-1 6 -10 6 -9 0 -17 6 -17 14 0 11 5 12 25 3 14 -7 23 -17 21 -24 -3 -6 8 -16
25 -22 34 -12 37 -17 9 -17 -11 0 -20 4 -20 9 0 5 -7 6 -16 3 -9 -4 -13 -2 -8
5 4 7 0 10 -10 7 -23 -4 -22 -22 1 -26 23 -5 38 -19 21 -19 -7 0 -22 -4 -33
-8 -16 -5 -17 -5 -5 4 12 8 12 11 -3 17 -12 4 -16 13 -12 28 6 19 5 20 -8 4
-17 -22 -24 -23 -24 -3 0 8 5 15 11 15 6 0 4 5 -4 10 -9 6 -11 10 -3 10 7 0
10 7 6 17 -4 11 -3 14 6 9 7 -5 10 -14 7 -21z m-1721 -7 c-65 -11 -94 -7 -40
6 28 7 57 10 65 7 8 -3 -3 -9 -25 -13z m1815 -18 c0 -5 -4 -10 -10 -10 -5 0
-10 5 -10 10 0 6 5 10 10 10 6 0 10 -4 10 -10z m-775 -29 c-3 -5 -1 -12 5 -16
24 -15 -4 -27 -39 -16 -2 0 4 10 14 21 19 21 30 27 20 11z m30 -1 c3 -5 1 -10
-4 -10 -6 0 -11 5 -11 10 0 6 2 10 4 10 3 0 8 -4 11 -10z m28 -15 c-3 -9 -8
-14 -10 -11 -3 3 -2 9 2 15 9 16 15 13 8 -4z m387 -15 c0 -5 -2 -10 -4 -10 -3
0 -8 5 -11 10 -3 6 -1 10 4 10 6 0 11 -4 11 -10z m328 -16 c-13 -13 -20 -14
-34 -5 -17 11 -17 11 4 6 13 -4 22 -2 22 4 0 6 5 11 12 11 8 0 7 -6 -4 -16z
m-87 -15 c12 -12 27 -18 38 -14 10 3 23 0 29 -7 8 -10 3 -13 -21 -13 -32 1
-87 30 -87 46 0 15 19 10 41 -12z m-872 -33 c-5 -6 -31 -45 -56 -86 -26 -41
-48 -76 -49 -78 -1 -2 -14 6 -28 19 -24 21 -24 23 -9 53 8 17 38 55 66 83 47
49 52 51 68 37 12 -11 15 -20 8 -28z m917 -33 c-5 -5 -96 34 -96 41 0 3 23 -5
50 -16 28 -11 48 -23 46 -25z m15 -127 c5 -6 9 -14 9 -20 0 -5 -10 2 -23 15
-15 17 -19 28 -12 36 7 8 11 7 13 -5 2 -10 8 -21 13 -26z m-23 -31 c13 -13
-83 28 -98 42 -8 8 9 3 38 -10 29 -14 56 -28 60 -32z m-38 -60 c14 -8 21 -14
15 -14 -5 0 -21 6 -35 14 -14 8 -20 14 -15 14 6 0 21 -6 35 -14z m116 -1 c-4
-9 -1 -24 6 -33 12 -14 11 -14 -5 -2 -15 12 -20 11 -37 -4 -15 -14 -20 -15
-20 -4 0 19 11 33 35 47 27 15 28 15 21 -4z m-91 -64 c3 -5 1 -10 -4 -10 -6 0
-11 5 -11 10 0 6 2 10 4 10 3 0 8 -4 11 -10z m-210 -160 c-3 -5 -12 -10 -18
-10 -7 0 -6 4 3 10 19 12 23 12 15 0z m-238 -87 c-4 -3 1 -12 11 -20 15 -11
13 -12 -11 -1 -20 8 -24 14 -15 20 16 9 24 10 15 1z m-247 -119 c0 -8 -4 -13
-9 -10 -5 3 -12 -1 -15 -10 -3 -8 -2 -12 4 -9 6 3 10 1 10 -5 0 -6 -7 -13 -15
-16 -8 -4 -12 -10 -9 -15 3 -5 1 -17 -5 -26 -9 -17 -10 -17 -15 0 -15 45 -15
46 1 40 11 -4 14 -2 11 8 -3 8 4 24 15 37 24 26 27 27 27 6z m808 -31 c-10 -2
-18 -9 -18 -15 0 -6 -3 -9 -6 -5 -10 10 6 27 24 26 15 -1 15 -2 0 -6z m6 -28
c-4 -8 -10 -15 -15 -15 -4 0 -6 7 -3 15 4 8 10 15 15 15 4 0 6 -7 3 -15z
m-800 -27 c-3 -4 0 -8 5 -8 6 0 11 -5 11 -10 0 -6 -11 -3 -25 6 -31 20 -36 51
-6 32 11 -7 17 -16 15 -20z"/>
<path d="M660 2373 c0 -10 4 -14 8 -8 4 6 11 13 16 18 5 4 2 7 -7 7 -10 0 -17
-8 -17 -17z"/>
<path d="M2135 1960 c3 -5 8 -10 11 -10 2 0 4 5 4 10 0 6 -5 10 -11 10 -5 0
-7 -4 -4 -10z"/>
<path d="M1879 1869 c-10 -6 -4 -8 18 -7 18 1 30 4 27 7 -9 9 -31 9 -45 0z"/>
<path d="M1160 1443 c0 -6 8 -17 18 -24 16 -13 16 -13 2 6 -8 11 -16 22 -17
24 -2 2 -3 0 -3 -6z"/>
<path d="M2655 1300 c-19 -31 -12 -47 26 -57 39 -10 39 -10 23 8 -9 11 -23 19
-31 19 -15 0 -14 21 2 32 6 5 6 8 -2 8 -6 0 -15 -4 -18 -10z"/>
<path d="M2687 1294 c-9 -9 12 -34 29 -34 8 0 14 -7 14 -15 0 -9 12 -20 26
-25 34 -13 39 -13 24 5 -8 9 -8 15 -2 15 6 0 12 -6 15 -12 4 -10 7 -10 18 0 9
8 9 12 1 12 -6 0 -10 6 -8 13 1 6 1 8 -2 4 -2 -5 -12 -1 -22 8 -14 12 -20 13
-26 4 -5 -8 -3 -10 7 -4 12 7 12 6 1 -6 -11 -12 -15 -11 -23 4 -6 9 -16 17
-24 17 -7 0 -15 5 -17 11 -2 5 -7 7 -11 3z"/>
<path d="M2820 1273 c0 -5 5 -15 10 -23 7 -12 9 -10 7 8 -1 19 -17 33 -17 15z"/>
<path d="M2637 1232 c-3 -4 26 -19 66 -32 40 -12 77 -24 82 -27 6 -2 19 4 30
12 19 16 19 16 -2 5 -13 -6 -23 -7 -23 -2 0 5 -28 17 -62 27 -34 9 -67 19 -74
22 -7 2 -14 0 -17 -5z"/>
<path d="M2670 1160 c0 -14 38 -32 45 -21 6 10 1 14 -27 24 -10 4 -18 2 -18
-3z"/>
<path d="M2806 1147 c3 -10 9 -15 12 -12 3 3 0 11 -7 18 -10 9 -11 8 -5 -6z"/>
<path d="M2740 731 c0 -5 5 -13 10 -16 6 -3 10 -2 10 4 0 5 -4 13 -10 16 -5 3
-10 2 -10 -4z"/>
<path d="M1935 920 c-3 -5 -1 -10 4 -10 6 0 11 5 11 10 0 6 -2 10 -4 10 -3 0
-8 -4 -11 -10z"/>
<path d="M2194 2755 c26 -19 42 -19 26 0 -7 8 -20 15 -29 15 -13 -1 -13 -3 3
-15z"/>
<path d="M2580 2760 c-13 -8 -12 -10 3 -10 9 0 17 5 17 10 0 12 -1 12 -20 0z"/>
<path d="M2381 2738 c-1 -17 11 -23 34 -18 6 1 15 3 22 4 7 1 16 6 20 10 4 5
-8 6 -29 2 -25 -5 -38 -3 -41 6 -3 8 -6 6 -6 -4z"/>
<path d="M2564 2721 c3 -5 15 -7 26 -4 28 7 25 13 -6 13 -14 0 -23 -4 -20 -9z"/>
<path d="M2300 2710 c8 -5 20 -10 25 -10 6 0 3 5 -5 10 -8 5 -19 10 -25 10 -5
0 -3 -5 5 -10z"/>
<path d="M2703 2689 c4 -12 -2 -18 -24 -23 -16 -3 -29 -10 -29 -15 0 -5 14 -5
35 2 38 11 40 14 24 37 -9 13 -10 13 -6 -1z"/>
<path d="M2230 2671 c-14 -4 -20 -10 -14 -14 6 -3 20 0 30 8 21 16 20 16 -16
6z"/>
<path d="M2355 2670 c-3 -5 -2 -10 4 -10 5 0 13 5 16 10 3 6 2 10 -4 10 -5 0
-13 -4 -16 -10z"/>
<path d="M2494 2648 c-5 -7 -2 -9 9 -5 12 4 14 2 10 -11 -6 -14 -4 -15 9 -5 8
7 19 9 24 5 4 -4 2 1 -5 11 -15 20 -37 22 -47 5z"/>
<path d="M2608 2653 c6 -2 18 -2 25 0 6 3 1 5 -13 5 -14 0 -19 -2 -12 -5z"/>
<path d="M574 2626 c-10 -8 -16 -18 -12 -21 4 -4 3 -17 -3 -28 -9 -15 -8 -18
2 -12 9 6 10 3 6 -8 -4 -10 -10 -23 -13 -31 -4 -11 0 -13 16 -9 14 4 18 9 11
16 -6 6 -5 14 4 23 18 19 26 18 18 -3 -4 -10 -2 -14 4 -10 6 4 13 -2 16 -12 3
-14 -1 -18 -20 -18 -13 0 -30 -6 -36 -12 -9 -9 -6 -11 16 -7 15 3 25 1 23 -3
-3 -4 -1 -13 3 -20 6 -10 11 -9 23 3 11 11 18 12 27 3 6 -6 11 -9 12 -6 0 2 2
12 4 21 2 11 -2 15 -13 12 -11 -4 -10 -1 3 7 30 18 30 18 9 34 -26 19 -34 19
-28 -2 4 -13 2 -13 -6 2 -7 11 -19 25 -26 31 -8 6 -15 23 -16 38 -1 14 -3 26
-3 26 -1 0 -10 -6 -21 -14z"/>
<path d="M2150 2620 c0 -5 5 -10 10 -10 6 0 10 5 10 10 0 6 -4 10 -10 10 -5 0
-10 -4 -10 -10z"/>
<path d="M2627 2618 c4 -7 8 -22 8 -32 0 -11 5 -21 11 -23 7 -2 10 6 9 19 -1
13 -3 29 -4 36 0 6 -8 12 -17 12 -10 0 -12 -4 -7 -12z"/>
<path d="M170 2477 c0 -1 9 -10 20 -20 19 -16 20 -16 20 3 0 13 -7 20 -20 20
-11 0 -20 -1 -20 -3z"/>
<path d="M130 2430 c-8 -5 -12 -12 -9 -15 4 -3 12 1 19 10 14 17 11 19 -10 5z"/>
<path d="M2680 2409 c-8 -5 -13 -9 -10 -10 3 0 13 -2 23 -4 9 -2 17 1 17 5 0
15 -15 19 -30 9z"/>
<path d="M1815 2290 c3 -5 8 -10 11 -10 2 0 4 5 4 10 0 6 -5 10 -11 10 -5 0
-7 -4 -4 -10z"/>
<path d="M2070 2290 c-13 -8 -12 -10 3 -10 9 0 17 5 17 10 0 12 -1 12 -20 0z"/>
<path d="M1865 2240 c-3 -5 -1 -10 4 -10 6 0 11 5 11 10 0 6 -2 10 -4 10 -3 0
-8 -4 -11 -10z"/>
<path d="M1898 2233 c7 -3 16 -2 19 1 4 3 -2 6 -13 5 -11 0 -14 -3 -6 -6z"/>
<path d="M1240 2200 c0 -16 7 -20 30 -20 36 0 41 25 8 34 -35 9 -38 8 -38 -14z"/>
<path d="M1036 2189 c-13 -19 -12 -23 2 -40 10 -11 20 -29 24 -42 4 -13 6 5 6
41 -1 66 -8 75 -32 41z"/>
<path d="M1189 2189 c-8 -16 -8 -27 2 -45 17 -33 33 -30 24 4 -4 15 -7 35 -7
45 1 23 -5 22 -19 -4z"/>
<path d="M2005 2179 c-16 -6 -14 -8 13 -8 33 -1 41 4 20 12 -7 2 -22 1 -33 -4z"/>
<path d="M948 2173 c-10 -2 -18 -9 -18 -15 0 -6 3 -8 7 -5 3 4 11 0 17 -8 9
-13 11 -11 11 10 0 14 0 24 0 24 0 -1 -8 -3 -17 -6z"/>
<path d="M1880 2166 c0 -3 4 -16 10 -30 14 -37 32 -33 19 4 -6 17 -15 30 -20
30 -5 0 -9 -2 -9 -4z"/>
<path d="M1010 2120 c0 -5 5 -10 11 -10 5 0 7 5 4 10 -3 6 -8 10 -11 10 -2 0
-4 -4 -4 -10z"/>
<path d="M1895 2090 c-3 -5 -2 -10 4 -10 5 0 13 5 16 10 3 6 2 10 -4 10 -5 0
-13 -4 -16 -10z"/>
<path d="M1944 2016 c-10 -10 -6 -13 20 -13 17 0 23 2 13 4 -9 3 -15 9 -12 14
9 14 -8 10 -21 -5z"/>
<path d="M960 2005 c0 -8 4 -15 8 -15 5 0 9 7 9 15 0 8 -4 15 -9 15 -4 0 -8
-7 -8 -15z"/>
<path d="M950 1886 c-10 -20 -11 -29 -2 -38 9 -9 12 -8 12 5 0 10 8 17 20 17
11 0 20 5 20 10 0 6 -6 10 -14 10 -8 0 -16 5 -18 11 -2 6 -10 -1 -18 -15z"/>
<path d="M1160 1870 c0 -11 4 -20 9 -20 5 0 7 9 4 20 -3 11 -7 20 -9 20 -2 0
-4 -9 -4 -20z"/>
<path d="M2780 1836 c6 -8 18 -12 26 -9 19 7 7 23 -18 23 -17 0 -18 -3 -8 -14z"/>
<path d="M1165 1829 c-4 -6 -5 -12 -2 -15 2 -3 7 2 10 11 7 17 1 20 -8 4z"/>
<path d="M2845 1830 c3 -5 13 -10 21 -10 8 0 14 5 14 10 0 6 -9 10 -21 10 -11
0 -17 -4 -14 -10z"/>
<path d="M38 1793 c7 -3 16 -2 19 1 4 3 -2 6 -13 5 -11 0 -14 -3 -6 -6z"/>
<path d="M66 1783 c-6 -14 -5 -15 5 -6 7 7 10 15 7 18 -3 3 -9 -2 -12 -12z"/>
<path d="M6 1764 c-5 -14 -4 -15 9 -4 17 14 19 20 6 20 -5 0 -12 -7 -15 -16z"/>
<path d="M30 1755 c-6 -8 -9 -18 -6 -23 3 -5 -1 -18 -9 -28 -8 -10 -15 -26
-15 -34 0 -15 5 -8 46 55 13 19 14 26 5 20 -11 -6 -13 -4 -8 8 8 21 3 22 -13
2z"/>
<path d="M1020 1760 l-35 -6 34 -7 c44 -9 61 -9 61 2 0 14 -21 18 -60 11z"/>
<path d="M1250 1751 c0 -16 12 -41 19 -41 13 0 9 25 -6 38 -7 7 -13 8 -13 3z"/>
<path d="M2768 1733 c7 -3 16 -2 19 1 4 3 -2 6 -13 5 -11 0 -14 -3 -6 -6z"/>
<path d="M2865 1710 c3 -5 8 -10 11 -10 2 0 4 5 4 10 0 6 -5 10 -11 10 -5 0
-7 -4 -4 -10z"/>
<path d="M200 1625 c-7 -9 -11 -17 -9 -20 3 -2 10 5 17 15 14 24 10 26 -8 5z"/>
<path d="M188 1563 c7 -3 16 -2 19 1 4 3 -2 6 -13 5 -11 0 -14 -3 -6 -6z"/>
<path d="M2738 1483 c6 -2 18 -2 25 0 6 3 1 5 -13 5 -14 0 -19 -2 -12 -5z"/>
<path d="M2710 1470 c0 -5 5 -10 11 -10 5 0 7 5 4 10 -3 6 -8 10 -11 10 -2 0
-4 -4 -4 -10z"/>
<path d="M2740 1460 c0 -5 5 -10 10 -10 6 0 10 5 10 10 0 6 -4 10 -10 10 -5 0
-10 -4 -10 -10z"/>
<path d="M2856 1434 c-17 -12 -17 -14 -4 -14 9 0 20 5 23 11 11 17 2 18 -19 3z"/>
<path d="M50 1375 c0 -7 8 -16 17 -19 21 -8 40 9 21 20 -21 14 -38 13 -38 -1z"/>
<path d="M260 1270 c12 -9 10 -10 -12 -6 -22 5 -28 3 -28 -10 0 -13 6 -15 31
-10 17 3 43 6 57 6 36 0 16 18 -28 26 -28 4 -32 3 -20 -6z"/>
<path d="M2075 980 c-16 -7 -17 -9 -3 -9 9 -1 20 4 23 9 7 11 7 11 -20 0z"/>
<path d="M345 910 c10 -11 20 -20 22 -20 2 0 -2 9 -9 20 -7 11 -17 20 -22 20
-5 0 -1 -9 9 -20z"/>
<path d="M2260 916 c0 -2 7 -7 16 -10 8 -3 12 -2 9 4 -6 10 -25 14 -25 6z"/>
<path d="M2577 797 c-7 -20 -6 -32 4 -29 5 1 23 -5 39 -13 16 -8 35 -15 42
-14 7 0 -9 11 -37 24 -27 13 -43 24 -35 24 8 0 26 -6 40 -14 33 -19 46 -19 30
0 -7 9 -15 13 -18 10 -3 -3 -10 -1 -16 4 -21 16 -44 20 -49 8z"/>
<path d="M284 764 c1 -21 8 -40 14 -40 7 -1 17 -2 23 -3 6 0 3 -8 -6 -17 -18
-18 -20 -15 62 -106 38 -41 43 -53 43 -94 0 -43 -1 -45 -17 -33 -17 13 -17 13
0 -7 9 -11 14 -24 11 -27 -11 -10 -111 102 -147 163 -23 40 -37 55 -50 52 -11
-2 -16 -10 -13 -20 2 -9 7 -59 11 -109 6 -89 6 -93 -14 -93 -11 0 -23 -5 -26
-10 -4 -6 -11 -7 -17 -4 -6 4 -8 2 -4 -4 3 -6 -2 -13 -11 -15 -18 -5 39 -11
66 -8 7 2 10 -2 6 -8 -3 -6 -13 -11 -22 -11 -12 0 -13 -3 -3 -14 6 -8 18 -12
26 -9 9 3 14 -1 14 -12 0 -9 4 -14 9 -10 5 3 12 1 16 -5 4 -7 -6 -9 -29 -6
-30 4 -36 1 -36 -15 0 -10 -7 -19 -15 -19 -9 0 -15 -9 -15 -25 0 -21 -5 -25
-27 -25 l-27 0 22 16 c32 22 17 37 -19 19 -22 -12 -29 -13 -29 -3 0 9 -3 8
-10 -2 -8 -12 -13 -13 -29 -3 -17 10 -19 10 -15 -1 3 -7 -2 -20 -10 -29 -9 -9
-16 -32 -16 -51 l0 -36 20 20 c11 11 34 23 50 27 17 3 30 10 30 15 0 6 12 8
27 5 15 -3 36 -1 48 3 20 8 97 -7 121 -22 17 -11 144 12 186 33 21 11 44 19
53 19 8 0 15 5 15 10 0 6 47 34 105 62 74 37 105 58 105 70 0 10 -5 18 -11 18
-5 0 -8 -4 -5 -9 3 -4 -6 -7 -19 -5 -15 1 -29 -4 -35 -14 -9 -16 -9 -15 -10 1
0 12 10 20 30 24 17 3 29 8 26 10 -3 3 4 14 15 26 10 11 19 26 19 31 0 6 19
20 43 30 40 19 41 20 15 23 -18 3 -44 -7 -82 -31 -66 -42 -116 -57 -141 -44
-12 7 -16 7 -11 0 5 -9 -41 -48 -49 -40 -2 2 -5 21 -6 42 -3 28 0 41 11 44 30
10 39 34 22 62 l-16 25 26 -23 c25 -22 27 -23 63 -7 21 8 40 13 43 10 6 -6
-77 -44 -97 -45 -8 0 -12 -3 -9 -6 4 -3 58 11 121 31 l115 37 -36 32 c-19 17
-37 29 -40 28 -3 -2 -8 0 -11 5 -3 4 -27 25 -52 45 -46 37 -47 37 -53 15 -4
-17 2 -30 30 -54 20 -18 46 -33 59 -33 21 0 53 -25 44 -34 -2 -3 -18 -8 -34
-11 -29 -7 -29 -7 -10 8 16 13 17 16 5 20 -8 3 -24 8 -34 11 -11 4 -27 -1 -39
-11 -11 -10 -17 -12 -13 -5 4 6 2 12 -3 12 -6 0 -11 10 -11 22 0 21 0 21 15 2
8 -10 14 -14 14 -9 0 6 -6 19 -14 29 -8 11 -15 14 -15 8 0 -24 -17 -11 -38 31
-40 75 -49 87 -56 79 -4 -4 -11 -7 -14 -7 -12 -1 -83 -27 -106 -39 -13 -6 -21
-17 -18 -24 2 -8 -8 -12 -33 -12 -25 0 -35 4 -32 13 2 6 11 11 18 9 8 -2 5 6
-7 20 -12 13 -28 36 -37 52 l-15 30 2 -40z m202 -99 c25 -10 41 -12 54 -5 10
6 25 10 32 9 7 0 0 -5 -15 -11 -19 -7 -26 -15 -23 -25 5 -12 1 -14 -18 -9 -34
8 -60 -2 -45 -20 8 -10 16 -10 35 -2 34 16 57 -5 28 -27 -10 -8 -14 -15 -6
-15 6 0 12 -9 12 -19 0 -11 6 -22 13 -25 6 -3 -8 -3 -33 0 -25 3 -51 12 -59
20 -13 11 -11 15 9 22 17 6 20 11 11 17 -8 4 -17 2 -22 -6 -6 -10 -16 -5 -42
22 -18 19 -36 44 -39 57 -5 19 -4 20 13 11 15 -7 19 -6 19 6 0 19 30 19 76 0z
m124 -61 c0 -17 -26 -19 -36 -3 -7 12 15 31 28 23 4 -3 8 -12 8 -20z m100
-188 c0 -2 -7 -6 -15 -10 -8 -3 -15 -1 -15 4 0 6 7 10 15 10 8 0 15 -2 15 -4z
m-503 -12 c-3 -3 -12 -4 -19 -1 -8 3 -5 6 6 6 11 1 17 -2 13 -5z m22 -146 c11
-10 13 -10 7 0 -5 8 0 12 16 11 13 0 17 -3 10 -6 -6 -2 -10 -8 -7 -13 8 -12
-17 -17 -55 -9 -34 6 -35 6 -5 8 23 1 27 3 15 11 -8 5 -10 10 -4 10 5 0 16 -6
23 -12z m-159 -28 c0 -5 -6 -10 -14 -10 -8 0 -18 5 -21 10 -3 6 3 10 14 10 12
0 21 -4 21 -10z"/>
<path d="M430 662 c0 -12 23 -32 37 -32 22 0 15 16 -12 28 -14 6 -25 8 -25 4z"/>
<path d="M2466 763 c-11 -11 -7 -20 9 -20 8 0 15 4 15 8 0 11 -16 20 -24 12z"/>
<path d="M570 753 c0 -5 6 -18 14 -29 17 -22 35 -11 20 13 -12 19 -34 29 -34
16z"/>
<path d="M2405 740 c-3 -5 -1 -10 4 -10 6 0 11 5 11 10 0 6 -2 10 -4 10 -3 0
-8 -4 -11 -10z"/>
<path d="M2108 553 c7 -3 16 -2 19 1 4 3 -2 6 -13 5 -11 0 -14 -3 -6 -6z"/>
<path d="M2470 510 c0 -5 5 -10 11 -10 5 0 7 5 4 10 -3 6 -8 10 -11 10 -2 0
-4 -4 -4 -10z"/>
<path d="M550 429 c0 -11 4 -18 10 -14 5 3 7 12 3 20 -7 21 -13 19 -13 -6z"/>
<path d="M108 423 c6 -2 18 -2 25 0 6 3 1 5 -13 5 -14 0 -19 -2 -12 -5z"/>
<path d="M98 393 c7 -3 16 -2 19 1 4 3 -2 6 -13 5 -11 0 -14 -3 -6 -6z"/>
<path d="M8 373 c7 -3 16 -2 19 1 4 3 -2 6 -13 5 -11 0 -14 -3 -6 -6z"/>
<path d="M145 350 c4 -6 11 -8 16 -5 14 9 11 15 -7 15 -8 0 -12 -5 -9 -10z"/>
<path d="M2566 291 c-3 -5 1 -11 9 -15 8 -3 15 -1 15 4 0 13 -18 22 -24 11z"/>
<path d="M2867 250 c-3 -11 -1 -20 4 -20 5 0 9 9 9 20 0 11 -2 20 -4 20 -2 0
-6 -9 -9 -20z"/>
<path d="M2730 202 c0 -4 20 -15 44 -25 24 -10 52 -27 62 -38 27 -30 44 -24
44 16 0 39 -32 67 -54 45 -8 -8 -7 -10 6 -5 11 4 20 0 27 -14 17 -30 14 -32
-21 -11 -17 10 -35 17 -40 14 -5 -3 -14 -2 -21 4 -18 13 -47 22 -47 14z"/>
<path d="M395 100 c-20 -22 -19 -30 5 -30 16 0 40 26 40 43 0 11 -32 2 -45
-13z"/>
<path d="M434 45 c-17 -13 -17 -14 -2 -15 9 0 20 5 23 11 11 17 0 20 -21 4z"/>
</g>
</svg>
